<?xml version="1.0" encoding="utf-8"?>
<!-- Generator: Adobe Illustrator 23.0.3, SVG Export Plug-In . SVG Version: 6.00 Build 0)  -->
<svg version="1.1" id="Layer_1" xmlns="http://www.w3.org/2000/svg" xmlns:xlink="http://www.w3.org/1999/xlink" x="0px" y="0px"
	 viewBox="0 0 64 64" style="enable-background:new 0 0 64 64;" xml:space="preserve">
<style type="text/css">
	.st0{fill:#4D4D4D;}
	.st1{fill:url(#SVGID_1_);}
	.st2{fill:#1E4280;}
	.st3{fill:#4B6ECF;}
	.st4{fill:#736357;}
	.st5{fill:#F2F2F2;}
</style>
<g>
	<path class="st0" d="M52.59,59.6H11.06c5.38-17.66,5.36-35.87,0-54.65h41.53C47.25,23.17,47.21,41.38,52.59,59.6z"/>
	
		<linearGradient id="SVGID_1_" gradientUnits="userSpaceOnUse" x1="13.3833" y1="32.2732" x2="46.9704" y2="32.2732" gradientTransform="matrix(-1 0 0 1 62 0)">
		<stop  offset="0" style="stop-color:#CCE0F4"/>
		<stop  offset="0.0641" style="stop-color:#C3DCF2"/>
		<stop  offset="0.1706" style="stop-color:#A9D2EE"/>
		<stop  offset="0.3066" style="stop-color:#80C2E7"/>
		<stop  offset="0.4649" style="stop-color:#47ACDE"/>
		<stop  offset="0.5674" style="stop-color:#1E9CD7"/>
		<stop  offset="0.8652" style="stop-color:#0075BE"/>
		<stop  offset="0.9944" style="stop-color:#005B97"/>
	</linearGradient>
	<path class="st1" d="M15.03,56.86h33.59c-4.7-15.99-4.7-32.38,0-49.18H15.03C18.74,23.98,18.58,40.38,15.03,56.86z"/>
	<g>
		<polygon class="st2" points="27.35,38.6 31.13,45.13 34.9,51.67 27.35,51.67 19.8,51.67 23.58,45.13 		"/>
	</g>
	<g>
		<polygon class="st3" points="34.01,33.09 39.37,42.38 44.74,51.67 34.01,51.67 23.28,51.67 28.65,42.38 		"/>
	</g>
	<path class="st4" d="M59,57.14h-3.15c-5.14-16.39-5.14-32.79,0-49.18H59C53.74,25.01,53.74,41.4,59,57.14z"/>
	<path class="st4" d="M5,57.14h3.15c5.14-16.39,5.14-32.79,0-49.18H5C10.26,25.01,10.26,41.4,5,57.14z"/>
	<g>
		<circle class="st5" cx="24.58" cy="17.47" r="3.96"/>
	</g>
</g>
</svg>
